{
    "accessors": [
        {
            "bufferView": 0,
            "componentType": 5126,
            "count": 74604,
            "max": [
                0.3823288083076477,
                0.566266655921936,
                0.4145442545413971
            ],
            "min": [
                -0.3204079270362854,
                -0.6209867596626282,
                -0.395121693611145
            ],
            "type": "VEC3"
        },
        {
            "bufferView": 1,
            "componentType": 5126,
            "count": 74604,
            "type": "VEC3"
        },
        {
            "bufferView": 2,
            "componentType": 5126,
            "count": 74604,
            "type": "VEC2"
        },
        {
            "bufferView": 3,
            "componentType": 5125,
            "count": 74604,
            "type": "SCALAR"
        }
    ],
    "asset": {
        "generator": "Arcsoftgltf v1.0",
        "version": "2.0"
    },
    "bufferViews": [
        {
            "buffer": 0,
            "byteLength": 895248,
            "byteOffset": 0
        },
        {
            "buffer": 0,
            "byteLength": 895248,
            "byteOffset": 895248
        },
        {
            "buffer": 0,
            "byteLength": 596832,
            "byteOffset": 1790496
        },
        {
            "buffer": 0,
            "byteLength": 298416,
            "byteOffset": 2387328
        }
    ],
    "buffers": [
        {
            "byteLength": 2685744,
            "name": "ArcsoftBuffer",
            "uri": "https://zamirov.github.io/ArLab/1611567991476.bin"
        }
    ],
    "extensionsUsed": [
        "MTL",
        "avatar_shape_names",
        "avatar_arcdata",
        "avatar_glass_keypoints",
        "Arc3DTech"
    ],
    "images": [
        {
            "name": "",
            "uri": "https://zamirov.github.io/ArLab/1611567991476.png"
        }
    ],
    "materials": [
        {
            "alphaMode": "OPAQUE",
            "doubleSided": true,
            "extensions": {
                "MTL": {
                    "Ka": [
                        0.429,
                        0.535,
                        0.382
                    ],
                    "Kd": [
                        0.429,
                        0.535,
                        0.382
                    ],
                    "Ks": [
                        0.0,
                        0.0,
                        0.0
                    ],
                    "Ns": 5.0,
                    "d": 1.0,
                    "illum": 2.0,
                    "map_Kd": "1611567991476.png"
                }
            },
            "name": "",
            "pbrMetallicRoughness": {
                "baseColorTexture": {
                    "index": 0,
                    "texCoord": 0
                },
                "metallicFactor": 1.0,
                "roughnessFactor": 1.0
            }
        }
    ],
    "meshes": [
        {
            "extensions": {
                "Arc3DTech": {
                    "Date": "1 25,2021 18:46:31",
                    "Model": "Object",
                    "ScanAngle": "-180.0;0.0;0.0;180.0"
                }
            },
            "name": "ArcsoftMeshes0",
            "primitives": [
                {
                    "attributes": {
                        "NORMAL": 1,
                        "POSITION": 0,
                        "TEXCOORD_0": 2
                    },
                    "indices": 3,
                    "material": 0
                }
            ]
        }
    ],
    "nodes": [
        {
            "mesh": 0,
            "name": "",
            "rotation": [
                0.0,
                0.0,
                0.0,
                1.0
            ],
            "scale": [
                1.0,
                1.0,
                1.0
            ],
            "translation": [
                0.0,
                0.0,
                0.0
            ]
        }
    ],
    "samplers": [
        {
            "magFilter": 9729,
            "minFilter": 9987,
            "name": "",
            "wrapS": 10497,
            "wrapT": 10497
        }
    ],
    "scene": 0,
    "scenes": [
        {
            "nodes": [
                0
            ]
        }
    ],
    "textures": [
        {
            "name": "",
            "sampler": 0,
            "source": 0
        }
    ]
}